<?xml version="1.0" standalone="no"?>
<!DOCTYPE svg PUBLIC "-//W3C//DTD SVG 20010904//EN"
 "http://www.w3.org/TR/2001/REC-SVG-20010904/DTD/svg10.dtd">
<svg version="1.0" xmlns="http://www.w3.org/2000/svg"
 width="500.000000pt" height="500.000000pt" viewBox="0 0 500.000000 500.000000"
 preserveAspectRatio="xMidYMid meet">

<g transform="translate(0.000000,500.000000) scale(0.100000,-0.100000)"
fill="#000000" stroke="none">
<path d="M873 4495 c-181 -39 -330 -190 -368 -372 -22 -102 -22 -3154 0 -3256
39 -183 189 -333 372 -372 57 -12 311 -15 1624 -15 1075 0 1574 3 1615 11 168
31 311 154 376 325 l23 59 0 1620 0 1620 -23 59 c-33 89 -64 135 -131 199 -68
65 -154 109 -246 126 -95 18 -3160 14 -3242 -4z m762 -697 c61 -32 129 -103
158 -166 33 -72 31 -188 -5 -264 -35 -76 -103 -141 -176 -168 -83 -32 -196
-25 -271 15 -60 33 -110 87 -143 154 -34 67 -33 207 1 271 49 92 112 149 195
176 65 22 180 13 241 -18z m1749 -828 c214 -54 364 -208 428 -437 22 -76 22
-95 26 -725 l3 -648 -275 0 -275 0 -3 543 c-3 534 -3 543 -26 602 -12 32 -35
75 -50 95 -111 137 -381 122 -483 -26 -18 -26 -41 -74 -53 -108 -19 -58 -20
-87 -24 -583 l-3 -523 -260 0 -259 0 0 890 0 890 260 0 260 0 0 -109 c0 -61 4
-112 8 -115 5 -3 15 6 23 21 7 14 45 54 83 89 73 68 173 124 266 148 83 22
261 20 354 -4z m-1614 -920 l0 -890 -275 0 -275 0 0 890 0 890 275 0 275 0 0
-890z"/>
</g>
</svg>
