<svg width="58" height="58" viewBox="0 0 58 58" fill="none" xmlns="http://www.w3.org/2000/svg">
<g clip-path="url(#clip0_236_182)">
<path d="M47.2119 24.8611L22.7597 15.7867C21.8905 15.4666 20.9494 15.3942 20.0415 15.5777C19.1336 15.7612 18.2945 16.1934 17.6179 16.826C16.9413 17.4586 16.4537 18.2668 16.2097 19.1603C15.9656 20.0539 15.9746 20.9977 16.2356 21.8864L23.6474 46.8929C23.9415 47.8783 24.5323 48.7491 25.3393 49.3865C26.1463 50.0238 27.1303 50.3968 28.1571 50.4545C29.1838 50.5123 30.2034 50.2519 31.0768 49.709C31.9501 49.1661 32.6348 48.367 33.0375 47.4207L36.8425 38.3884C36.9385 38.1744 37.0763 37.9817 37.2476 37.8214C37.419 37.6612 37.6206 37.5367 37.8406 37.4553L47.108 34.2654C48.0792 33.9272 48.9224 33.2978 49.5228 32.4628C50.1231 31.6279 50.4514 30.6281 50.4627 29.5998C50.4741 28.5715 50.168 27.5647 49.5863 26.7167C49.0045 25.8687 48.1754 25.2207 47.2119 24.8611V24.8611ZM47.0536 29.5715C47.049 29.9148 46.9384 30.2484 46.7371 30.5265C46.5357 30.8046 46.2533 31.0137 45.9285 31.1252L36.6725 34.3272C36.0105 34.5562 35.4041 34.9217 34.8925 35.4C34.3809 35.8784 33.9755 36.4589 33.7026 37.104L29.969 46.1151C29.8338 46.4269 29.6066 46.6898 29.3177 46.8688C29.0288 47.0477 28.6922 47.1341 28.3528 47.1163C28.0135 47.0985 27.6877 46.9773 27.4191 46.7691C27.1506 46.5609 26.9521 46.2755 26.8504 45.9513L19.4386 20.9449C19.3543 20.65 19.3531 20.3376 19.435 20.042C19.5169 19.7465 19.6787 19.4793 19.9027 19.2698C20.1268 19.0604 20.4042 18.9168 20.7046 18.855C21.005 18.7931 21.3166 18.8153 21.6051 18.9192L46.0574 27.9936C46.376 28.1136 46.6502 28.3283 46.8431 28.6088C47.036 28.8892 47.1383 29.2221 47.1364 29.5625L47.0536 29.5715Z" fill="black"/>
</g>
<defs>
<clipPath id="clip0_236_182">
<rect width="39.9912" height="39.9912" fill="white" transform="translate(0.737915 28.0499) rotate(-43.0747)"/>
</clipPath>
</defs>
</svg>
