<?xml version="1.0" encoding="UTF-8"?>
<svg xmlns="http://www.w3.org/2000/svg" xmlns:xlink="http://www.w3.org/1999/xlink" width="70px" height="70px" viewBox="0 0 70 70" version="1.1">
<g id="surface1">
<path style=" stroke:none;fill-rule:evenodd;fill:rgb(98.431373%,98.431373%,98.431373%);fill-opacity:1;" d="M 34.488281 11.859375 C 34.273438 11.9375 32.449219 13.726562 25.324219 20.863281 L 16.425781 29.769531 L 16.140625 30.332031 C 15.738281 31.121094 15.578125 31.792969 15.578125 32.675781 C 15.578125 33.96875 16.015625 35.105469 16.863281 36.023438 C 18.546875 37.84375 21.222656 38.1875 23.273438 36.847656 C 23.53125 36.675781 24.855469 35.40625 26.832031 33.429688 L 29.976562 30.28125 L 30.007812 42.230469 L 30.042969 54.175781 L 30.203125 54.652344 C 30.78125 56.378906 31.9375 57.515625 33.636719 58.046875 C 34.371094 58.277344 35.636719 58.277344 36.363281 58.046875 C 37.40625 57.722656 38.28125 57.148438 38.867188 56.414062 C 39.292969 55.875 39.753906 54.902344 39.882812 54.261719 L 39.992188 53.734375 L 39.992188 30.25 L 43.21875 33.46875 C 45.078125 35.320312 46.597656 36.777344 46.800781 36.902344 C 48.421875 37.914062 50.527344 37.90625 52.121094 36.882812 C 53.585938 35.949219 54.421875 34.417969 54.421875 32.675781 C 54.421875 31.792969 54.261719 31.121094 53.859375 30.332031 L 53.574219 29.769531 L 44.714844 20.894531 C 38.5625 14.730469 35.769531 11.976562 35.582031 11.890625 C 35.257812 11.738281 34.863281 11.726562 34.488281 11.859375 "/>
<path style=" stroke:none;fill-rule:evenodd;fill:rgb(1.568627%,39.215686%,72.941176%);fill-opacity:1;" d="M 32.265625 0.0703125 C 24.824219 0.707031 18.160156 3.441406 12.4375 8.207031 C 11.335938 9.125 9.105469 11.351562 8.203125 12.441406 C 3.367188 18.257812 0.652344 24.945312 0.0625 32.496094 C -0.0429688 33.828125 0.0195312 37.433594 0.167969 38.757812 C 1.046875 46.574219 4.410156 53.742188 9.8125 59.328125 C 15.867188 65.582031 23.824219 69.300781 32.527344 69.9375 C 33.9375 70.039062 37.414062 69.984375 38.714844 69.835938 C 44.441406 69.191406 49.617188 67.316406 54.398438 64.164062 C 57.46875 62.140625 60.589844 59.210938 62.882812 56.195312 C 66.863281 50.964844 69.398438 44.414062 69.871094 38.144531 C 69.910156 37.597656 69.972656 37.101562 70.007812 37.035156 C 70.085938 36.886719 70.085938 32.746094 70.007812 32.867188 C 69.976562 32.921875 69.933594 32.644531 69.90625 32.199219 C 69.648438 27.925781 68.210938 22.917969 66.070312 18.824219 C 64.367188 15.566406 62.410156 12.910156 59.75 10.25 C 56.878906 7.382812 54.074219 5.367188 50.484375 3.589844 C 46.804688 1.773438 42.929688 0.640625 38.757812 0.167969 C 37.605469 0.0351562 33.410156 -0.0234375 32.265625 0.0703125 M 34.488281 11.859375 C 34.273438 11.9375 32.449219 13.726562 25.324219 20.863281 L 16.425781 29.769531 L 16.140625 30.332031 C 15.738281 31.121094 15.578125 31.792969 15.578125 32.675781 C 15.578125 33.96875 16.015625 35.105469 16.863281 36.023438 C 18.546875 37.84375 21.222656 38.1875 23.273438 36.847656 C 23.53125 36.675781 24.855469 35.40625 26.832031 33.429688 L 29.976562 30.28125 L 30.007812 42.230469 L 30.042969 54.175781 L 30.203125 54.652344 C 30.78125 56.378906 31.9375 57.515625 33.636719 58.046875 C 34.371094 58.277344 35.636719 58.277344 36.363281 58.046875 C 37.40625 57.722656 38.28125 57.148438 38.867188 56.414062 C 39.292969 55.875 39.753906 54.902344 39.882812 54.261719 L 39.992188 53.734375 L 39.992188 30.25 L 43.21875 33.46875 C 45.078125 35.320312 46.597656 36.777344 46.800781 36.902344 C 48.421875 37.914062 50.527344 37.90625 52.121094 36.882812 C 53.585938 35.949219 54.421875 34.417969 54.421875 32.675781 C 54.421875 31.792969 54.261719 31.121094 53.859375 30.332031 L 53.574219 29.769531 L 44.714844 20.894531 C 38.5625 14.730469 35.769531 11.976562 35.582031 11.890625 C 35.257812 11.738281 34.863281 11.726562 34.488281 11.859375 M 0.03125 34.964844 C 0.03125 36.132812 0.0390625 36.617188 0.0507812 36.046875 C 0.0625 35.476562 0.0625 34.523438 0.0507812 33.925781 C 0.0390625 33.332031 0.03125 33.800781 0.03125 34.964844 "/>
</g>
</svg>
