<svg xmlns="http://www.w3.org/2000/svg" width="1024" height="1024" viewBox="0 0 1024 1024" version="1.1"><path d="M 504.532 173.501 C 501.353 174.633, 474.713 200.799, 370.439 305.207 L 240.313 435.500 236.125 443.713 C 230.241 455.252, 227.875 465.087, 227.875 478 C 227.875 496.908, 234.269 513.567, 246.668 526.959 C 271.331 553.597, 310.473 558.631, 340.443 539.020 C 344.248 536.530, 363.600 517.944, 392.500 489.024 L 438.500 442.992 439 617.746 L 439.500 792.500 441.849 799.500 C 450.309 824.716, 467.176 841.398, 492.035 849.135 C 502.812 852.490, 521.314 852.500, 531.957 849.158 C 547.199 844.372, 559.984 836.015, 568.547 825.242 C 574.812 817.360, 581.549 803.132, 583.440 793.792 L 585 786.084 585 614.306 L 585 442.528 632.250 489.599 C 659.420 516.666, 681.669 538.019, 684.605 539.846 C 708.334 554.611, 739.123 554.497, 762.476 539.559 C 783.890 525.860, 796.125 503.476, 796.125 478 C 796.125 465.087, 793.759 455.251, 787.874 443.713 L 783.686 435.500 654.093 305.645 C 564.137 215.506, 523.277 175.217, 520.500 173.917 C 515.764 171.699, 510.012 171.549, 504.532 173.501" stroke="none" fill="#fbfbfb" fill-rule="evenodd"/><path d="M 472 1.057 C 363.142 10.340, 265.670 50.331, 181.954 120.058 C 165.812 133.502, 133.228 166.074, 119.989 182 C 49.265 267.079, 9.556 364.897, 0.909 475.348 C -0.618 494.851, 0.273 547.587, 2.458 566.983 C 15.336 681.335, 64.507 786.199, 143.540 867.860 C 232.108 959.373, 348.520 1013.747, 475.822 1023.064 C 496.448 1024.574, 547.307 1023.753, 566.341 1021.604 C 650.120 1012.143, 725.830 984.768, 795.786 938.641 C 840.697 909.028, 886.348 866.148, 919.900 822.061 C 978.133 745.542, 1015.220 649.715, 1022.099 558 C 1022.697 550.025, 1023.595 542.719, 1024.093 541.764 C 1025.229 539.588, 1025.274 479.019, 1024.139 480.810 C 1023.650 481.580, 1023.031 477.552, 1022.634 471.029 C 1018.839 408.531, 997.824 335.274, 966.510 275.376 C 941.589 227.707, 912.961 188.877, 874.042 149.958 C 832.077 107.993, 791.050 78.501, 738.500 52.521 C 684.705 25.926, 628.028 9.378, 566.983 2.444 C 550.088 0.524, 488.746 -0.371, 472 1.057 M 504.532 173.501 C 501.353 174.633, 474.713 200.799, 370.439 305.207 L 240.313 435.500 236.125 443.713 C 230.241 455.252, 227.875 465.087, 227.875 478 C 227.875 496.908, 234.269 513.567, 246.668 526.959 C 271.331 553.597, 310.473 558.631, 340.443 539.020 C 344.248 536.530, 363.600 517.944, 392.500 489.024 L 438.500 442.992 439 617.746 L 439.500 792.500 441.849 799.500 C 450.309 824.716, 467.176 841.398, 492.035 849.135 C 502.812 852.490, 521.314 852.500, 531.957 849.158 C 547.199 844.372, 559.984 836.015, 568.547 825.242 C 574.812 817.360, 581.549 803.132, 583.440 793.792 L 585 786.084 585 614.306 L 585 442.528 632.250 489.599 C 659.420 516.666, 681.669 538.019, 684.605 539.846 C 708.334 554.611, 739.123 554.497, 762.476 539.559 C 783.890 525.860, 796.125 503.476, 796.125 478 C 796.125 465.087, 793.759 455.251, 787.874 443.713 L 783.686 435.500 654.093 305.645 C 564.137 215.506, 523.277 175.217, 520.500 173.917 C 515.764 171.699, 510.012 171.549, 504.532 173.501 M 0.445 511.500 C 0.444 528.550, 0.581 535.666, 0.748 527.312 C 0.915 518.959, 0.915 505.009, 0.748 496.312 C 0.582 487.616, 0.445 494.450, 0.445 511.500" stroke="none" fill="#0464ba" fill-rule="evenodd"/></svg>