<svg fill='#02cc67' height="512" viewBox="0 0 64 64" width="512" xmlns="http://www.w3.org/2000/svg">
  <path d="M59.008 34a2.921 2.921 0 0 0-2.208-1.023h-.116a3.032 3.032 0 0 0-2.966 2.616A21.653 21.653 0 0 1 37.75 53.271a22.064 22.064 0 0 1-23.792-8.7A1 1 0 0 1 14.78 43H20a2 2 0 0 0 0-4H4v16a2 2 0 0 0 4 0v-5.34a1 1 0 0 1 1.793-.608 28 28 0 0 0 49.874-12.721A2.9 2.9 0 0 0 59.008 34zM44 25h16V9a2 2 0 0 0-4 0v5.34a1 1 0 0 1-1.793.608A28 28 0 0 0 4.354 27.53 3.006 3.006 0 0 0 7.325 31a3.029 3.029 0 0 0 2.966-2.588 21.993 21.993 0 0 1 39.751-8.983A1 1 0 0 1 49.22 21H44a2 2 0 0 0 0 4z" data-name="arrow-refresh-transfer-user interface-interface"/>
</svg>