<svg width="19" height="20" viewBox="0 0 19 20" fill="none" xmlns="http://www.w3.org/2000/svg">
  <path d="M17.519 18H1.78c-.298 0-.584.105-.795.293a.947.947 0 0 0-.33.707c0 .265.12.52.33.707.21.188.497.293.795.293h15.738c.298 0 .584-.105.795-.293a.948.948 0 0 0 .33-.707.948.948 0 0 0-.33-.707 1.199 1.199 0 0 0-.795-.293Zm-8.667-2.29c.107.091.233.162.37.21a1.17 1.17 0 0 0 .855 0 1.16 1.16 0 0 0 .371-.21l4.497-4a.951.951 0 0 0 .33-.71.951.951 0 0 0-.33-.71 1.203 1.203 0 0 0-.799-.294c-.299 0-.586.106-.798.294l-2.574 2.3V1a.947.947 0 0 0-.33-.707A1.199 1.199 0 0 0 9.65 0c-.298 0-.584.105-.795.293a.947.947 0 0 0-.33.707v11.59l-2.573-2.3a1.149 1.149 0 0 0-.367-.218 1.253 1.253 0 0 0-.864 0c-.136.05-.26.125-.366.218a1.004 1.004 0 0 0-.244.326.908.908 0 0 0 0 .768 1 1 0 0 0 .244.326l4.497 4Z" fill="#3D3D3D"/>
</svg>
