<?xml version="1.0" standalone="no"?>
<!DOCTYPE svg PUBLIC "-//W3C//DTD SVG 20010904//EN"
 "http://www.w3.org/TR/2001/REC-SVG-20010904/DTD/svg10.dtd">
<svg version="1.0" xmlns="http://www.w3.org/2000/svg"
 width="626.000000pt" height="626.000000pt" viewBox="0 0 626.000000 626.000000"
 preserveAspectRatio="xMidYMid meet">

<g transform="translate(0.000000,626.000000) scale(0.100000,-0.100000)"
fill="#000000" stroke="none">
<path d="M830 6229 c-397 -101 -700 -405 -800 -804 l-30 -120 0 -2172 0 -2173
26 -112 c29 -128 104 -293 177 -393 155 -212 379 -363 632 -425 l120 -30 1088
0 1087 0 0 1180 0 1180 -382 2 -383 3 -3 523 -2 522 385 0 385 0 0 259 c0 143
5 295 11 338 46 333 218 656 459 863 152 130 266 192 455 248 l90 26 503 4
502 3 0 -525 0 -526 -437 0 c-436 0 -438 0 -478 -23 -44 -25 -99 -99 -115
-155 -5 -20 -10 -144 -10 -274 l0 -238 520 0 520 0 0 -525 0 -525 -520 0 -520
0 0 -1180 0 -1180 598 0 597 0 119 30 c403 101 706 403 806 805 l30 120 0
2175 0 2175 -30 120 c-34 134 -100 280 -175 383 -44 61 -210 232 -225 232 -4
0 -24 14 -45 30 -72 57 -252 136 -373 164 l-112 26 -2178 -1 -2177 -1 -115
-29z"/>
</g>
</svg>
