<?xml version="1.0" standalone="no"?>
<!DOCTYPE svg PUBLIC "-//W3C//DTD SVG 20010904//EN"
 "http://www.w3.org/TR/2001/REC-SVG-20010904/DTD/svg10.dtd">
<svg version="1.0" xmlns="http://www.w3.org/2000/svg"
 width="36.000000pt" height="32.000000pt" viewBox="0 0 36.000000 32.000000"
 preserveAspectRatio="xMidYMid meet">

<g transform="translate(0.000000,32.000000) scale(0.100000,-0.100000)"
fill="#000000" stroke="none">
<path d="M12 308 c-17 -17 -17 -259 0 -276 7 -7 36 -12 65 -12 l53 0 0 55 c0
42 -3 55 -15 55 -9 0 -15 9 -15 25 0 15 6 25 14 25 7 0 16 12 19 28 10 44 22
54 63 56 33 1 39 -2 42 -21 3 -17 -2 -22 -25 -25 -40 -4 -45 -38 -5 -38 26 0
29 -3 25 -24 -3 -16 -13 -26 -27 -28 -18 -3 -21 -11 -24 -55 l-3 -53 48 0 c27
0 54 5 61 12 17 17 17 259 0 276 -17 17 -259 17 -276 0z"/>
<path d="M308 3 c6 -2 18 -2 25 0 6 3 1 5 -13 5 -14 0 -19 -2 -12 -5z"/>
</g>
</svg>
