<?xml version="1.0" encoding="UTF-8"?>
<!DOCTYPE svg PUBLIC "-//W3C//DTD SVG 1.1//EN" "http://www.w3.org/Graphics/SVG/1.1/DTD/svg11.dtd">
<svg xmlns="http://www.w3.org/2000/svg" version="1.1" width="35px" height="41px" style="shape-rendering:geometricPrecision; text-rendering:geometricPrecision; image-rendering:optimizeQuality; fill-rule:evenodd; clip-rule:evenodd" xmlns:xlink="http://www.w3.org/1999/xlink">
<g><path style="opacity:1" fill="#202239" d="M 4.5,-0.5 C 10.8333,-0.5 17.1667,-0.5 23.5,-0.5C 25.1423,0.802988 26.8089,2.13632 28.5,3.5C 28.5,3.83333 28.5,4.16667 28.5,4.5C 29.418,10.7748 29.7513,17.1082 29.5,23.5C 27.9309,26.2284 25.5975,28.0617 22.5,29C 16.8333,29.6667 11.1667,29.6667 5.5,29C 3.67694,28.0027 2.01027,26.8361 0.5,25.5C 0.5,24.8333 0.166667,24.5 -0.5,24.5C -0.5,18.1667 -0.5,11.8333 -0.5,5.5C 1.13696,3.52483 2.80363,1.52483 4.5,-0.5 Z"/></g>
<g><path style="opacity:0.964" fill="#fdfdfd" d="M 34.5,1.5 C 34.5,13.5 34.5,25.5 34.5,37.5C 26.4324,38.7654 18.4324,39.7654 10.5,40.5C 9.83333,40.5 9.16667,40.5 8.5,40.5C 7.08134,39.5489 5.41467,39.2155 3.5,39.5C 3.5,38.1667 3.5,36.8333 3.5,35.5C 11.1739,35.6664 18.8406,35.4997 26.5,35C 27.9308,34.5348 29.0975,33.7014 30,32.5C 31.6067,23.9362 31.94,15.2695 31,6.5C 30.5831,5.24402 29.7498,4.57735 28.5,4.5C 28.5,4.16667 28.5,3.83333 28.5,3.5C 30.2804,1.58273 32.2804,0.916059 34.5,1.5 Z"/></g>
<g><path style="opacity:1" fill="#d2d2d3" d="M 26.5,10.5 C 24.0274,10.0882 22.6941,11.0882 22.5,13.5C 19.1226,7.03529 14.4559,5.70196 8.5,9.5C 7.11552,8.19914 5.61552,8.19914 4,9.5C 3.50074,14.4889 3.33407,19.4889 3.5,24.5C 2.34602,18.013 2.17935,11.3464 3,4.5C 3.5,4 4,3.5 4.5,3C 11.1667,2.33333 17.8333,2.33333 24.5,3C 26.2785,5.13544 26.9452,7.63544 26.5,10.5 Z"/></g>
<g><path style="opacity:1" fill="#33344a" d="M 21.5,4.5 C 24.8606,5.20318 25.1939,6.53651 22.5,8.5C 20.3576,7.56289 20.0243,6.22955 21.5,4.5 Z"/></g>
<g><path style="opacity:1" fill="#181a32" d="M 22.5,13.5 C 19.9667,22.5108 15.1333,24.1775 8,18.5C 6.6281,15.5551 6.79477,12.5551 8.5,9.5C 14.4559,5.70196 19.1226,7.03529 22.5,13.5 Z"/></g>
<g><path style="opacity:1" fill="#d1d1d3" d="M 12.5,9.5 C 18.5361,9.39278 20.5361,12.2261 18.5,18C 13.4378,20.9379 10.4378,19.6045 9.5,14C 9.55715,11.7911 10.5572,10.2911 12.5,9.5 Z"/></g>
<g><path style="opacity:1" fill="#dcdcdd" d="M 8.5,9.5 C 6.79477,12.5551 6.6281,15.5551 8,18.5C 15.1333,24.1775 19.9667,22.5108 22.5,13.5C 22.6941,11.0882 24.0274,10.0882 26.5,10.5C 26.6658,15.1785 26.4992,19.8452 26,24.5C 25.5,25 25,25.5 24.5,26C 17.8333,26.6667 11.1667,26.6667 4.5,26C 3.94404,25.6174 3.61071,25.1174 3.5,24.5C 3.33407,19.4889 3.50074,14.4889 4,9.5C 5.61552,8.19914 7.11552,8.19914 8.5,9.5 Z"/></g>
<g><path style="opacity:1" fill="#d4d4d5" d="M 29.5,23.5 C 29.6582,26.5455 28.9915,29.3788 27.5,32C 19.1973,33.7985 10.8639,33.9652 2.5,32.5C 1.88258,32.3893 1.38258,32.056 1,31.5C 0.504543,29.5273 0.337876,27.5273 0.5,25.5C 2.01027,26.8361 3.67694,28.0027 5.5,29C 11.1667,29.6667 16.8333,29.6667 22.5,29C 25.5975,28.0617 27.9309,26.2284 29.5,23.5 Z"/></g>
<g><path style="opacity:1" fill="#ebebeb" d="M 28.5,4.5 C 29.7498,4.57735 30.5831,5.24402 31,6.5C 31.94,15.2695 31.6067,23.9362 30,32.5C 29.0975,33.7014 27.9308,34.5348 26.5,35C 18.8406,35.4997 11.1739,35.6664 3.5,35.5C 2.89022,34.609 2.55688,33.609 2.5,32.5C 10.8639,33.9652 19.1973,33.7985 27.5,32C 28.9915,29.3788 29.6582,26.5455 29.5,23.5C 29.7513,17.1082 29.418,10.7748 28.5,4.5 Z"/></g>
</svg>
