<?xml version="1.0" standalone="no"?>
<!DOCTYPE svg PUBLIC "-//W3C//DTD SVG 20010904//EN"
 "http://www.w3.org/TR/2001/REC-SVG-20010904/DTD/svg10.dtd">
<svg version="1.0" xmlns="http://www.w3.org/2000/svg"
 width="39.000000pt" height="33.000000pt" viewBox="0 0 39.000000 33.000000"
 preserveAspectRatio="xMidYMid meet">

<g transform="translate(0.000000,33.000000) scale(0.100000,-0.100000)"
fill="#000000" stroke="none">
<path d="M56 314 c-23 -23 -23 -245 0 -268 23 -23 245 -23 268 0 23 23 23 245
0 268 -23 23 -245 23 -268 0z m92 -67 c2 -12 -3 -17 -17 -17 -15 0 -21 6 -21
21 0 25 33 22 38 -4z m0 -95 c3 -57 1 -62 -18 -62 -18 0 -20 6 -20 66 0 57 2
65 18 62 14 -3 18 -16 20 -66z m106 49 c11 -9 16 -29 16 -63 0 -42 -3 -49 -17
-46 -12 2 -20 15 -23 41 -7 52 -24 51 -28 0 -3 -35 -7 -43 -23 -43 -17 0 -19
7 -19 58 0 32 3 61 6 65 10 10 71 2 88 -12z"/>
<path d="M7 13 c7 -2 19 -2 26 0 6 3 1 5 -13 5 -14 0 -19 -2 -13 -5z"/>
<path d="M348 13 c6 -2 18 -2 25 0 6 3 1 5 -13 5 -14 0 -19 -2 -12 -5z"/>
</g>
</svg>
