<?xml version="1.0" encoding="UTF-8"?>
<!DOCTYPE svg PUBLIC "-//W3C//DTD SVG 1.1//EN" "http://www.w3.org/Graphics/SVG/1.1/DTD/svg11.dtd">
<svg xmlns="http://www.w3.org/2000/svg" version="1.1" width="37px" height="33px" style="shape-rendering:geometricPrecision; text-rendering:geometricPrecision; image-rendering:optimizeQuality; fill-rule:evenodd; clip-rule:evenodd" xmlns:xlink="http://www.w3.org/1999/xlink">
<g><path style="opacity:1" fill="#f7f7f8" d="M -0.5,-0.5 C 11.8333,-0.5 24.1667,-0.5 36.5,-0.5C 36.5,10.5 36.5,21.5 36.5,32.5C 24.1667,32.5 11.8333,32.5 -0.5,32.5C -0.5,21.5 -0.5,10.5 -0.5,-0.5 Z"/></g>
<g><path style="opacity:1" fill="#15182f" d="M 22.5,0.5 C 25.3113,0.571347 27.978,1.23801 30.5,2.5C 31.5539,2.32006 32.5539,1.98672 33.5,1.5C 34.7112,2.2739 34.7112,3.10723 33.5,4C 35.9915,5.24915 35.8249,6.41582 33,7.5C 30.8319,25.8268 20.6652,33.1602 2.5,29.5C 2.5,28.5 2.5,27.5 2.5,26.5C 9.95789,26.2982 10.7912,24.2982 5,20.5C 4.88707,18.0261 3.88707,16.0261 2,14.5C 1.34202,12.892 1.84202,11.7253 3.5,11C 1.52185,8.50268 1.02185,5.66935 2,2.5C 6.11712,7.14164 11.2838,9.47497 17.5,9.5C 17.9002,5.69092 19.5669,2.69092 22.5,0.5 Z"/></g>
</svg>
